<svg xmlns="http://www.w3.org/2000/svg" viewBox="0 0 24 24" fill="#059669">
  <!-- Coupe d'Hygie - Bowl of Hygieia -->
  <!-- Coupe -->
  <path d="M7 12h10v1c0 3-2 6-5 6s-5-3-5-6v-1z"/>
  <path d="M6 11h12c.5 0 1 .5 1 1s-.5 1-1 1H6c-.5 0-1-.5-1-1s.5-1 1-1z"/>
  <!-- Pied -->
  <path d="M11 19h2v2H11z"/>
  <path d="M9 21h6v1H9z"/>
  <!-- Serpent enroulé -->
  <path d="M12 2c-.8 0-1.5.3-2 .8-.3.3-.5.7-.5 1.2 0 .8.5 1.5 1.2 1.8-.2.3-.2.7-.2 1.2 0 1 .5 2 1.5 2.5-1.5.5-2.5 1.5-3 3" 
        stroke="#059669" stroke-width="1.5" stroke-linecap="round" fill="none"/>
  <path d="M15 5c.5-.3.8-.8.8-1.3 0-.5-.2-.9-.5-1.2-.5-.5-1.2-.8-2-.8" 
        stroke="#059669" stroke-width="1.5" stroke-linecap="round" fill="none"/>
  <circle cx="13.5" cy="2.5" r="1"/>
</svg>
